<svg width="35" height="35" viewBox="0 0 35 35" fill="none" xmlns="http://www.w3.org/2000/svg">
<path d="M28.1835 8.42576C29.1666 9.89706 29.1666 11.9452 29.1666 16.0416C29.1666 20.1379 29.1666 22.1861 28.1835 23.6574C27.7579 24.2944 27.211 24.8412 26.5741 25.2668C25.2888 26.1256 23.5632 26.2342 20.4166 26.2479V26.2499L18.8043 29.4745C18.2669 30.5494 16.733 30.5494 16.1955 29.4745L14.5833 26.2499V26.2479C11.4366 26.2342 9.71106 26.1256 8.42576 25.2668C7.78882 24.8412 7.24194 24.2944 6.81635 23.6574C5.83325 22.1861 5.83325 20.1379 5.83325 16.0416C5.83325 11.9452 5.83325 9.89706 6.81635 8.42576C7.24194 7.78882 7.78882 7.24194 8.42576 6.81635C9.89706 5.83325 11.9452 5.83325 16.0416 5.83325H18.9583C23.0546 5.83325 25.1028 5.83325 26.5741 6.81635C27.211 7.24194 27.7579 7.78882 28.1835 8.42576Z" stroke="#222222" stroke-linecap="round" stroke-linejoin="round"/>
<path d="M13.125 13.125L21.875 13.125" stroke="#222222" stroke-linecap="round" stroke-linejoin="round"/>
<path d="M13.125 18.9583H17.5" stroke="#222222" stroke-linecap="round" stroke-linejoin="round"/>
</svg>
