<svg width="32" height="30" viewBox="0 0 32 30" fill="none" xmlns="http://www.w3.org/2000/svg">
<path d="M13.8459 29H18.3505" stroke="#000001" stroke-linecap="round" stroke-linejoin="round"/>
<path d="M25.1072 12.2C25.1072 9.82365 24.1581 7.54464 22.4685 5.86431C20.779 4.18399 18.4874 3.23999 16.0981 3.23999C13.7087 3.23999 11.4172 4.18399 9.72762 5.86431C8.03807 7.54464 7.08889 9.82365 7.08889 12.2V20.04C7.08889 20.9311 6.73295 21.7857 6.09937 22.4159C5.46579 23.046 4.60647 23.4 3.71045 23.4H28.4857C27.5897 23.4 26.7303 23.046 26.0968 22.4159C25.4632 21.7857 25.1072 20.9311 25.1072 20.04V12.2Z" stroke="#000001" stroke-linecap="round" stroke-linejoin="round"/>
<path d="M1.45825 11.9088C1.45947 9.77664 1.97073 7.67536 2.9498 5.77853C3.92888 3.8817 5.34767 2.24376 7.08899 1" stroke="#000001" stroke-linecap="round" stroke-linejoin="round"/>
<path d="M30.7382 11.9088C30.7369 9.77664 30.2257 7.67536 29.2466 5.77853C28.2675 3.8817 26.8487 2.24376 25.1074 1" stroke="#000001" stroke-linecap="round" stroke-linejoin="round"/>
</svg>
