<svg width="31" height="30" viewBox="0 0 31 30" fill="none" xmlns="http://www.w3.org/2000/svg">
<path d="M20.848 22.5385V26.8462C20.848 27.4174 20.6107 27.9652 20.1884 28.3692C19.766 28.7731 19.1931 29 18.5957 29H2.82969C2.23234 29 1.65946 28.7731 1.23707 28.3692C0.814687 27.9652 0.577393 27.4174 0.577393 26.8462V3.15385C0.577393 2.58261 0.814687 2.03477 1.23707 1.63085C1.65946 1.22692 2.23234 1 2.82969 1H18.5957C19.1931 1 19.766 1.22692 20.1884 1.63085C20.6107 2.03477 20.848 2.58261 20.848 3.15385V7.46154" stroke="#000001" stroke-linecap="round" stroke-linejoin="round"/>
<path d="M14.0913 15H29.8574" stroke="#000001" stroke-linecap="round" stroke-linejoin="round"/>
<path d="M25.3528 10.6924L29.8574 15.0001L25.3528 19.3078" stroke="#000001" stroke-linecap="round" stroke-linejoin="round"/>
</svg>
