<svg width="27" height="25" viewBox="0 0 27 25" fill="none" xmlns="http://www.w3.org/2000/svg">
<path d="M9.65383 9.625C12.0435 9.625 13.9808 7.69423 13.9808 5.3125C13.9808 2.93077 12.0435 1 9.65383 1C7.26413 1 5.3269 2.93077 5.3269 5.3125C5.3269 7.69423 7.26413 9.625 9.65383 9.625Z" stroke="#000001" stroke-linecap="round" stroke-linejoin="round"/>
<path d="M18.3077 23.9999H1V22.0833C1 19.7958 1.91174 17.602 3.53465 15.9845C5.15756 14.367 7.3587 13.4583 9.65385 13.4583C11.949 13.4583 14.1501 14.367 15.773 15.9845C17.3959 17.602 18.3077 19.7958 18.3077 22.0833V23.9999Z" stroke="#000001" stroke-linecap="round" stroke-linejoin="round"/>
<path d="M17.3462 1C18.4938 1 19.5943 1.45435 20.4058 2.2631C21.2172 3.07185 21.6731 4.16875 21.6731 5.3125C21.6731 6.45625 21.2172 7.55315 20.4058 8.3619C19.5943 9.17065 18.4938 9.625 17.3462 9.625" stroke="#000001" stroke-linecap="round" stroke-linejoin="round"/>
<path d="M20.4231 13.8223C22.0612 14.4434 23.4716 15.5456 24.4674 16.983C25.4633 18.4205 25.9977 20.1254 26 21.8723V23.9998H23.1154" stroke="#000001" stroke-linecap="round" stroke-linejoin="round"/>
</svg>
