<svg width="27" height="27" viewBox="0 0 27 27" fill="none" xmlns="http://www.w3.org/2000/svg">
<path d="M13.5001 15.423C16.1553 15.423 18.3078 13.2705 18.3078 10.6153C18.3078 7.96009 16.1553 5.80762 13.5001 5.80762C10.8449 5.80762 8.69238 7.96009 8.69238 10.6153C8.69238 13.2705 10.8449 15.423 13.5001 15.423Z" stroke="#000001" stroke-linecap="round" stroke-linejoin="round"/>
<path d="M5.28857 22.9231C6.14673 21.5144 7.35282 20.3503 8.7909 19.5424C10.229 18.7346 11.8507 18.3103 13.5001 18.3103C15.1495 18.3103 16.7713 18.7346 18.2093 19.5424C19.6474 20.3503 20.8535 21.5144 21.7117 22.9231" stroke="#000001" stroke-linecap="round" stroke-linejoin="round"/>
<path d="M13.5 26C20.4036 26 26 20.4036 26 13.5C26 6.59644 20.4036 1 13.5 1C6.59644 1 1 6.59644 1 13.5C1 20.4036 6.59644 26 13.5 26Z" stroke="#000001" stroke-linecap="round" stroke-linejoin="round"/>
</svg>
